<svg width="265" height="73" viewBox="0 0 265 73" fill="none" xmlns="http://www.w3.org/2000/svg">
<path d="M4.12539 31V29.4707L6.99062 29.2422V7.18164L4.12539 6.95312V5.40625H14.0219C16.1898 5.40625 18.1059 5.94531 19.7699 7.02344C21.434 8.10156 22.7348 9.58984 23.6723 11.4883C24.6098 13.3867 25.0785 15.5547 25.0785 17.9922V18.4141C25.0785 20.8398 24.6156 23.002 23.6898 24.9004C22.7641 26.7871 21.475 28.2754 19.8227 29.3652C18.182 30.4551 16.2777 31 14.1098 31H4.12539ZM9.1 29.2422H14.0219C15.7914 29.2422 17.3441 28.7676 18.6801 27.8184C20.0277 26.8574 21.0766 25.5625 21.8266 23.9336C22.5883 22.293 22.9691 20.4531 22.9691 18.4141V17.957C22.9691 15.8945 22.5883 14.0547 21.8266 12.4375C21.0766 10.8086 20.0277 9.52539 18.6801 8.58789C17.3441 7.65039 15.7914 7.18164 14.0219 7.18164H9.1V29.2422ZM36.9895 31.3691C35.1848 31.3691 33.7727 30.8887 32.7531 29.9277C31.7336 28.9668 31.2238 27.666 31.2238 26.0254C31.2238 24.2676 31.968 22.8496 33.4562 21.7715C34.9562 20.6816 36.9953 20.1367 39.5734 20.1367H43.5109V17.957C43.5109 16.5742 43.1008 15.4668 42.2805 14.6348C41.4602 13.8027 40.2355 13.3867 38.6066 13.3867C37.6809 13.3867 36.8488 13.5391 36.1105 13.8438C35.384 14.1367 34.7512 14.5117 34.2121 14.9688L34.0363 17.8691H32.2961V13.8965C33.1164 13.1816 34.048 12.625 35.091 12.2266C36.134 11.8281 37.3176 11.6289 38.6418 11.6289C40.8801 11.6289 42.6027 12.1914 43.8098 13.3164C45.0168 14.4414 45.6203 16 45.6203 17.9922V27.168C45.6203 27.543 45.632 27.918 45.6555 28.293C45.6789 28.6562 45.7199 29.0195 45.7785 29.3828L48.0461 29.4707V31H43.8977C43.7687 30.3086 43.675 29.752 43.6164 29.3301C43.5578 28.9082 43.5227 28.4336 43.5109 27.9062C42.8195 28.9258 41.9055 29.7578 40.7687 30.4023C39.632 31.0469 38.3723 31.3691 36.9895 31.3691ZM37.2355 29.5234C38.5363 29.5234 39.7668 29.1836 40.927 28.5039C42.0988 27.8125 42.9602 26.8984 43.5109 25.7617V21.7539H39.5559C37.6105 21.7539 36.0871 22.1758 34.9855 23.0195C33.884 23.8516 33.3332 24.877 33.3332 26.0957C33.3332 27.1152 33.6789 27.9414 34.3703 28.5742C35.0734 29.207 36.0285 29.5234 37.2355 29.5234ZM56.9688 38.6816C56.7227 38.6816 56.4238 38.6523 56.0723 38.5938C55.7324 38.5469 55.4746 38.5 55.2988 38.4531L55.5449 36.7129C55.709 36.7363 55.9375 36.7598 56.2305 36.7832C56.5352 36.8184 56.7578 36.8359 56.8984 36.8359C57.8125 36.8359 58.5391 36.5312 59.0781 35.9219C59.6172 35.3242 60.1094 34.4688 60.5547 33.3555L61.5391 30.7715L54.5605 13.6504L52.5039 13.5273V11.9805H59.2012V13.5273L56.793 13.6855L61.6797 25.9551L62.4707 28.1172H62.5762L68.0078 13.6855L65.5293 13.5273V11.9805H72.1738V13.5273L70.1523 13.6504L62.3477 34.0586C61.8203 35.4062 61.1699 36.5137 60.3965 37.3809C59.623 38.248 58.4805 38.6816 56.9688 38.6816ZM78.0027 12.4199L76.7371 11.5234C77.2879 10.7617 77.6922 10 77.95 9.23828C78.2195 8.47656 78.3543 7.62695 78.3543 6.68945V3.57812H80.4637V6.6543C80.4637 7.75586 80.241 8.81641 79.7957 9.83594C79.3621 10.8555 78.7645 11.7168 78.0027 12.4199ZM92.1461 31.3691C90.8102 31.3691 89.568 31.1934 88.4195 30.8418C87.2828 30.4785 86.2105 29.957 85.2027 29.2773L85.1852 25.375H86.9078L87.2066 28.1699C87.8863 28.6973 88.6422 29.0781 89.4742 29.3125C90.3063 29.5469 91.1969 29.6641 92.1461 29.6641C93.7398 29.6641 94.9527 29.3184 95.7848 28.627C96.6168 27.9355 97.0328 27.1152 97.0328 26.166C97.0328 25.2754 96.6578 24.4902 95.9078 23.8105C95.1695 23.1191 93.8512 22.5625 91.9527 22.1406C89.6793 21.6484 88.0328 20.9922 87.0133 20.1719C86.0055 19.3516 85.5016 18.209 85.5016 16.7441C85.5016 15.3027 86.0992 14.0898 87.2945 13.1055C88.4898 12.1211 90.0895 11.6289 92.0934 11.6289C93.4879 11.6289 94.7008 11.834 95.732 12.2441C96.7633 12.6426 97.648 13.1816 98.3863 13.8613L98.4742 17.7637H96.7516L96.5055 14.9512C95.9781 14.4473 95.357 14.0605 94.6422 13.791C93.9391 13.5098 93.0895 13.3691 92.0934 13.3691C90.6637 13.3691 89.5621 13.7031 88.7887 14.3711C88.0152 15.0273 87.6285 15.7949 87.6285 16.6738C87.6285 17.248 87.7457 17.752 87.9801 18.1855C88.2262 18.6191 88.6891 19.0059 89.3688 19.3457C90.0602 19.6855 91.0621 20.002 92.3746 20.2949C94.7418 20.834 96.4586 21.5664 97.525 22.4922C98.6031 23.4062 99.1422 24.5957 99.1422 26.0605C99.1422 27.6074 98.5387 28.8789 97.3316 29.875C96.1363 30.8711 94.4078 31.3691 92.1461 31.3691ZM125.478 31.3691C123.779 31.3691 122.296 30.9648 121.03 30.1562C119.765 29.3359 118.78 28.2051 118.077 26.7637C117.386 25.3223 117.04 23.6641 117.04 21.7891V21.209C117.04 19.3457 117.386 17.6934 118.077 16.252C118.78 14.8105 119.759 13.6797 121.013 12.8594C122.279 12.0391 123.755 11.6289 125.443 11.6289C127.13 11.6289 128.607 12.0391 129.872 12.8594C131.138 13.6797 132.116 14.8105 132.808 16.252C133.511 17.6934 133.862 19.3457 133.862 21.209V21.7891C133.862 23.6641 133.511 25.3223 132.808 26.7637C132.116 28.2051 131.138 29.3359 129.872 30.1562C128.618 30.9648 127.154 31.3691 125.478 31.3691ZM125.478 29.6113C126.779 29.6113 127.898 29.2656 128.835 28.5742C129.773 27.8828 130.493 26.9512 130.997 25.7793C131.501 24.5957 131.753 23.2656 131.753 21.7891V21.209C131.753 19.7559 131.495 18.4434 130.98 17.2715C130.476 16.0879 129.749 15.1504 128.8 14.459C127.862 13.7559 126.743 13.4043 125.443 13.4043C124.118 13.4043 122.987 13.7559 122.05 14.459C121.112 15.1504 120.392 16.0879 119.888 17.2715C119.396 18.4434 119.15 19.7559 119.15 21.209V21.7891C119.15 23.2656 119.396 24.5957 119.888 25.7793C120.392 26.9512 121.112 27.8828 122.05 28.5742C122.999 29.2656 124.142 29.6113 125.478 29.6113ZM147.408 31L140.5 13.6504L138.479 13.5273V11.9805H145.176V13.5273L142.68 13.6855L147.602 26.2363L148.305 28.3281H148.41L149.166 26.2363L153.93 13.6855L151.398 13.5273V11.9805H158.096V13.5273L156.039 13.6504L149.307 31H147.408ZM170.868 31.3691C169.239 31.3691 167.804 30.9766 166.561 30.1914C165.319 29.3945 164.346 28.2988 163.643 26.9043C162.94 25.498 162.589 23.8809 162.589 22.0527V21.0859C162.589 19.2695 162.94 17.6523 163.643 16.2344C164.346 14.8047 165.296 13.6797 166.491 12.8594C167.698 12.0391 169.04 11.6289 170.516 11.6289C172.848 11.6289 174.671 12.3672 175.983 13.8438C177.296 15.3086 177.952 17.2715 177.952 19.7324V21.5254H164.768L164.733 22.2988C164.745 23.7051 165.003 24.959 165.507 26.0605C166.022 27.1621 166.737 28.0293 167.651 28.6621C168.577 29.2949 169.649 29.6113 170.868 29.6113C172.063 29.6113 173.112 29.4238 174.014 29.0488C174.929 28.6738 175.731 28.1523 176.423 27.4844L177.319 28.9258C176.593 29.6406 175.702 30.2266 174.647 30.6836C173.593 31.1406 172.333 31.3691 170.868 31.3691ZM164.909 19.7676H175.843V19.2402C175.843 17.5645 175.368 16.1758 174.419 15.0742C173.481 13.9609 172.18 13.4043 170.516 13.4043C169.509 13.4043 168.6 13.6797 167.792 14.2305C166.983 14.7695 166.321 15.5137 165.805 16.4629C165.302 17.4004 164.991 18.4668 164.874 19.6621L164.909 19.7676ZM183.904 31V29.4707L186.769 29.2422V13.7559L183.904 13.5273V11.9805H188.615L188.843 14.8809L188.861 15.3906C189.4 14.207 190.132 13.2871 191.058 12.6309C191.984 11.9629 193.091 11.6289 194.38 11.6289C194.697 11.6289 195.031 11.6582 195.382 11.7168C195.746 11.7637 196.009 11.8164 196.173 11.875L195.91 13.8086L193.959 13.6855C192.611 13.6621 191.509 14.0547 190.654 14.8633C189.798 15.6719 189.207 16.7383 188.879 18.0625V29.2422L191.744 29.4707V31H183.904Z" fill="#FF862E"/>
<line x1="2" y1="41.5" x2="265" y2="41.5" stroke="#FF862E" stroke-width="3"/>
<mask id="path-3-inside-1_4_10" fill="white">
<path d="M200 41C200 32.5131 203.424 24.3737 209.519 18.3726C215.614 12.3714 223.88 9 232.5 9C241.12 9 249.386 12.3714 255.481 18.3726C261.576 24.3737 265 32.5131 265 41L232.5 41L200 41Z"/>
</mask>
<path d="M200 41C200 32.5131 203.424 24.3737 209.519 18.3726C215.614 12.3714 223.88 9 232.5 9C241.12 9 249.386 12.3714 255.481 18.3726C261.576 24.3737 265 32.5131 265 41L232.5 41L200 41Z" fill="#FFF500" stroke="#FF862E" stroke-width="2" mask="url(#path-3-inside-1_4_10)"/>
</svg>
